HIERARCHY
ROOT hip
{
	OFFSET 0.000000 0.000000 0.000000 
	CHANNELS 6 Xposition Yposition Zposition Xrotation Zrotation Yrotation
	JOINT abdomen
	{
		OFFSET 0.000000 3.402643 0.000000 
		CHANNELS 3 Xrotation Zrotation Yrotation
		JOINT chest
		{
			OFFSET 0.000000 8.438565 -0.680529 
			CHANNELS 3 Xrotation Zrotation Yrotation
			JOINT neck
			{
				OFFSET 0.000000 10.207942 -0.272212 
				CHANNELS 3 Xrotation Zrotation Yrotation
				JOINT head
				{
					OFFSET 0.000000 3.130431 0.000000 
					CHANNELS 3 Xrotation Zrotation Yrotation
					End Site
					{
						OFFSET 0.000000 3.130435 0.000000 
					}
				}
			}
			JOINT lCollar
			{
				OFFSET 3.470700 6.669187 -0.816635 
				CHANNELS 3 Yrotation Zrotation Xrotation
				JOINT lShldr
				{
					OFFSET 3.198488 0.000000 0.000000 
					CHANNELS 3 Zrotation Yrotation Xrotation
					JOINT lForeArm
					{
						OFFSET 10.139888 0.000000 0.000000 
						CHANNELS 3 Yrotation Zrotation Xrotation
						JOINT lHand
						{
							OFFSET 8.370511 0.000000 0.000000 
							CHANNELS 3 Zrotation Yrotation Xrotation
							End Site
							{
								OFFSET 4.083176 0.000000 0.000000 
							}
						}
					}
				}
			}
			JOINT rCollar
			{
				OFFSET -3.470700 6.669187 -0.816635 
				CHANNELS 3 Yrotation Zrotation Xrotation
				JOINT rShldr
				{
					OFFSET -3.198488 0.000000 0.000000 
					CHANNELS 3 Zrotation Yrotation Xrotation
					JOINT rForeArm
					{
						OFFSET -10.139888 0.000000 0.000000 
						CHANNELS 3 Yrotation Zrotation Xrotation
						JOINT rHand
						{
							OFFSET -8.370511 0.000000 0.000000 
							CHANNELS 3 Zrotation Yrotation Xrotation
							End Site
							{
								OFFSET -4.083176 0.000000 0.000000 
							}
						}
					}
				}
			}
		}
	}
	JOINT lThigh
	{
		OFFSET 5.308129 -1.633274 1.361059 
		CHANNELS 3 Xrotation Zrotation Yrotation
		JOINT lShin
		{
			OFFSET -2.041588 -20.007561 0.000000 
			CHANNELS 3 Xrotation Zrotation Yrotation
			JOINT lFoot
			{
				OFFSET 0.000000 -19.190928 -1.224953 
				CHANNELS 3 Xrotation Yrotation Zrotation
				End Site
				{
					OFFSET 0.000000 -2.449906 4.627600 
				}
			}
		}
	}
	JOINT rThigh
	{
		OFFSET -5.308129 -1.633274 1.361059 
		CHANNELS 3 Xrotation Zrotation Yrotation
		JOINT rShin
		{
			OFFSET 2.041588 -20.007561 0.000000 
			CHANNELS 3 Xrotation Zrotation Yrotation
			JOINT rFoot
			{
				OFFSET 0.000000 -19.190928 -1.224953 
				CHANNELS 3 Xrotation Yrotation Zrotation
				End Site
				{
					OFFSET 0.000000 -2.449906 4.627600 
				}
			}
		}
	}
}
MOTION
Frames: 6
Frame Time: 0.011111
16.273293 50.200607 -3.124143 6.782010 1.771104 -102.049568 29.442196 7.019645 -0.581326 -32.499584 -3.397108 -0.859770 -8.260914 2.820039 4.806950 -0.890799 6.946342 10.687629 -10.275489 -5.709454 -1.550532 -64.370537 -33.171379 9.326138 -86.243866 1.261886 29.945362 8.524705 12.647240 -83.382210 5.831508 6.350754 -0.460990 78.818642 3.099542 29.071024 86.194763 -1.267790 29.602207 -8.534408 -12.637552 50.638535 -19.471905 20.212734 24.123573 81.234955 -0.037714 -9.474957 -0.454032 9.122465 -3.055705 -9.225688 2.801931 -11.014959 34.348724 5.080951 5.368031 -24.576256 12.728737 8.428381 
15.335103 50.471695 -3.133258 6.845453 1.109110 -105.510529 30.468159 6.111940 -0.304623 -32.309700 -2.695083 -0.729098 -8.121628 3.521822 5.633972 -0.776471 6.370142 12.541413 -10.275489 -5.709454 -1.550532 -63.061550 -32.243172 6.101029 -86.273033 1.285208 30.159410 8.524705 12.647240 -81.897842 5.831508 6.350754 -0.460990 78.805298 3.972980 29.404148 86.214111 -1.267634 29.739418 -8.534408 -12.637552 50.843609 -19.589336 22.770891 27.293056 82.109901 0.069050 -9.517375 -2.044292 8.505991 -2.854429 -6.271517 2.752320 -10.760766 32.566906 5.198440 5.145213 -23.936768 15.035951 9.530730 
14.486043 50.597958 -3.140347 6.885297 0.382805 -108.536942 31.732594 5.135804 -0.336589 -32.413509 -1.872169 -0.679785 -8.292748 3.941235 6.442995 -0.182937 6.204851 14.305434 -10.275489 -5.709454 -1.550532 -61.965496 -31.267199 2.656699 -86.313507 1.350601 30.439287 8.524705 12.647240 -79.905655 5.831508 6.350754 -0.460990 78.645889 4.750843 29.867947 86.233696 -1.267780 29.886387 -8.534408 -12.637552 50.843609 -20.164688 24.738590 28.802156 82.060745 0.078766 -9.515798 -3.167627 8.468834 -2.732605 -3.846011 2.586952 -10.276214 31.312046 5.260995 5.001948 -23.840107 16.648689 10.378882 
13.644744 50.669529 -3.108275 6.722476 1.570642 -110.536293 30.524477 5.120077 -0.558528 -32.079681 -1.356337 -0.768167 -8.477726 4.442949 7.159101 0.431668 5.859186 15.892863 -10.275489 -5.709454 -1.550532 -60.919018 -30.253376 -0.790721 -86.361778 1.443361 30.717556 8.524705 12.647240 -77.630264 5.831508 6.350754 -0.460990 78.494217 5.293656 30.127838 86.242920 -1.272274 29.954700 -8.534408 -12.637552 50.745949 -23.749210 26.461246 28.144743 81.720825 0.030230 -9.496953 -5.415952 8.554403 -2.439856 -3.615744 2.828829 -8.859685 30.173187 5.329913 4.859392 -23.981291 16.798466 10.458797 
13.116739 50.630032 -2.970535 6.785724 3.727289 -109.550186 29.233711 6.838107 -2.099553 -32.702209 -1.022165 -1.394110 -8.611140 4.973402 7.761028 0.890735 5.346658 17.255768 -10.275489 -5.709454 -1.550532 -59.310417 -29.423748 -4.693655 -86.408958 1.541531 30.946630 8.524705 12.647240 -77.454483 5.831508 6.350754 -0.460990 78.272446 5.680885 30.275007 86.247520 -1.274172 29.983871 -8.534408 -12.637552 50.941265 -31.055002 26.983013 23.186289 81.137810 -0.053868 -9.472398 -8.115633 9.806375 -1.928550 -4.778096 3.453980 -8.451488 29.482546 5.369496 4.788704 -24.469290 15.342672 9.817921 
12.243709 50.661766 -2.820303 7.407154 4.739744 -110.988533 28.799288 7.974443 -1.439292 -32.673264 -1.165097 -1.364335 -8.819647 5.390645 8.237034 1.255736 4.979402 18.334604 -10.275489 -5.709454 -1.550532 -58.106632 -28.688946 -8.543289 -86.475014 1.687576 31.212114 8.524705 12.647240 -76.985725 5.831508 6.350754 -0.460990 77.974998 5.961055 30.326593 86.263710 -1.291363 30.100412 -8.534408 -12.637552 51.419781 -34.257881 28.554737 21.250660 79.445763 -0.288371 -9.419568 -12.199341 9.635590 -1.217232 -4.069202 4.264356 -6.931755 28.712858 5.412250 4.652191 -24.855852 15.169980 9.800884 
